<svg width="100" height="100" viewBox="0 0 100 100" fill="none" xmlns="http://www.w3.org/2000/svg">
<rect width="100" height="100" rx="15" fill="#00437B"/>
<g clip-path="url(#clip0_1183_736)">
<path d="M59.4875 27.2681C58.05 27.8553 56.6125 27.1213 56.0375 25.8C55.4625 24.4787 56.1813 22.8638 57.475 22.2766C58.7688 21.6894 60.35 22.4234 60.925 23.7447C61.5 25.066 60.7813 26.6808 59.4875 27.2681ZM51.0063 37.1043C49.7125 37.6915 48.1313 36.9574 47.5563 35.6362C46.9813 34.3149 47.7 32.7 48.9938 32.1128C50.2875 31.5255 51.8688 32.2596 52.4438 33.5808C53.0188 34.9021 52.3 36.517 51.0063 37.1043ZM66.5312 31.6723C65.0938 32.2596 63.6563 31.5255 63.0813 30.2043C62.5063 28.883 63.225 27.2681 64.5188 26.6809C65.8125 26.0936 67.3937 26.8277 67.9688 28.1489C68.5438 29.4702 67.9688 31.0851 66.5312 31.6723ZM71.275 38.7191C69.8375 39.3064 68.4 38.5723 67.825 37.2511C67.25 35.9298 67.9687 34.3149 69.2625 33.7277C70.5562 33.1404 72.1375 33.8745 72.7125 35.1957C73.2875 36.517 72.5687 38.1319 71.275 38.7191ZM51.4375 18.9L54.7437 20.6617V15.6702L51.4375 16.6979L51.15 16.4043L52.4438 12H47.5563L48.85 16.4043L48.5625 16.6979C48.4187 16.8447 45.2562 15.6702 45.2562 15.6702V20.6617L48.5625 18.9C48.7063 19.0468 48.7062 19.1936 48.85 19.1936L46.9812 25.066C46.8375 25.3596 46.8375 25.6532 46.8375 25.9468C46.8375 27.5617 47.9875 28.883 49.5687 29.1766H50.575C52.0125 28.883 53.3062 27.5617 53.3062 26.0936C53.3062 25.8 53.3063 25.5064 53.1625 25.2128L51.2937 19.3404C51.15 19.0468 51.2937 19.0468 51.4375 18.9ZM40.5125 27.2681C41.8062 27.8553 43.3875 27.1213 43.9625 25.8C44.5375 24.4787 43.8188 22.8638 42.525 22.2766C41.2313 21.6894 39.65 22.4234 39.075 23.7447C38.5 25.066 39.075 26.6808 40.5125 27.2681ZM33.325 31.6723C34.6188 32.2596 36.2 31.5255 36.775 30.2043C37.35 28.883 36.6313 27.2681 35.3375 26.6809C34.0438 26.0936 32.4625 26.8277 31.8875 28.1489C31.3125 29.4702 32.0313 31.0851 33.325 31.6723ZM28.725 38.7191C30.0188 39.3064 31.6 38.5723 32.175 37.2511C32.75 35.9298 32.0312 34.3149 30.7375 33.7277C29.4437 33.1404 27.8625 33.8745 27.2875 35.1957C26.7125 36.517 27.2875 38.1319 28.725 38.7191ZM50 54.8681C56.325 54.8681 62.3625 55.3085 67.6812 56.0426C69.2625 49.4362 71.1313 45.766 73 43.1234L69.4062 41.8021C69.6938 43.7106 69.8375 44.5915 69.4062 45.766C68.8312 45.1787 68.2562 44.1511 67.825 42.3894L66.1 48.2617C67.1063 47.5277 67.9688 47.0872 68.975 46.9404C67.3938 50.6106 65.2375 51.4915 63.9438 51.3447C62.3625 51.0511 61.5 49.583 61.7875 48.2617C62.2188 46.5 63.9437 46.0596 64.8062 48.1149C66.3875 44.7383 63.6562 43.7106 61.9312 44.7383C64.6625 41.9489 64.95 39.6 62.7937 36.517C59.775 38.866 59.775 41.2149 61.0688 44.5915C59.3438 42.5362 56.4688 43.7106 57.475 46.9404C58.7688 44.8851 60.4938 46.2064 60.2063 48.1149C59.9188 49.7298 57.7625 51.1979 55.175 50.9043C51.2938 50.6106 51.0063 47.8213 51.0063 45.6191C52.0125 45.4723 53.7375 46.3532 55.175 48.4085L55.75 42.0957C54.1687 43.7106 52.7312 44.1511 51.15 44.1511C51.725 42.3894 54.1687 39.7468 54.1687 39.7468H46.4062C46.4062 39.7468 48.85 42.5362 49.425 44.1511C47.8438 44.1511 46.4062 43.8574 44.825 42.0957L45.4 48.4085C46.8375 46.3532 48.5625 45.4723 49.5687 45.6191C49.425 47.8213 49.2813 50.6106 45.4 50.9043C42.6688 51.1979 40.5125 49.7298 40.3688 48.1149C40.0813 46.2064 41.8062 44.8851 43.1 46.9404C44.1062 43.5638 41.375 42.5362 39.5062 44.5915C40.8 41.3617 40.8 38.866 37.7812 36.517C35.625 39.4532 35.9125 41.9489 38.6438 44.7383C36.9188 43.7106 34.1875 44.7383 35.7687 48.1149C36.6312 46.0596 38.3562 46.5 38.7875 48.2617C39.075 49.583 38.3562 51.0511 36.6312 51.3447C35.3375 51.6383 33.1813 50.6106 31.6 46.9404C32.4625 46.9404 33.325 47.3809 34.475 48.2617L32.75 42.3894C32.3187 44.0043 31.7438 45.1787 31.1688 45.766C30.7375 44.5915 30.8813 43.7106 31.1688 41.8021L27 43.1234C28.8687 45.766 30.7375 49.4362 32.3188 56.0426C37.6375 55.3085 43.675 54.8681 50 54.8681Z" fill="white"/>
</g>
<path d="M61.4136 79.9544C61.6436 80.2174 61.923 80.4762 62.2517 80.731C62.5804 80.9857 62.942 81.2158 63.3364 81.4212C63.739 81.6184 64.1746 81.7787 64.6429 81.9019C65.1113 82.017 65.6167 82.0745 66.159 82.0745C67.1697 82.0745 67.9421 81.865 68.4763 81.4459C69.0186 81.0186 69.2898 80.5009 69.2898 79.8928C69.2898 79.2601 69.0515 78.7794 68.5749 78.4507C68.1065 78.122 67.3587 77.8632 66.3316 77.6742L65.7769 77.5756C65.0374 77.4441 64.3019 77.2715 63.5706 77.0579C62.8393 76.8442 62.1778 76.5361 61.5861 76.1334C60.9945 75.7308 60.5138 75.2172 60.144 74.5927C59.7742 73.96 59.5893 73.1629 59.5893 72.2015C59.5893 71.6427 59.7126 71.0593 59.9591 70.4512C60.2056 69.8349 60.596 69.2721 61.1301 68.7626C61.6724 68.2449 62.3668 67.8217 63.2131 67.493C64.0677 67.1643 65.099 67 66.3069 67C67.7367 67 69.0104 67.2383 70.1279 67.7149C71.2537 68.1833 72.1617 68.8037 72.8519 69.5761L70.4731 71.7947C69.9882 71.2606 69.3637 70.8416 68.5995 70.5375C67.8435 70.2335 67.0629 70.0815 66.2576 70.0815C65.3291 70.0815 64.6018 70.2581 64.0759 70.6115C63.5583 70.9648 63.2994 71.425 63.2994 71.992C63.2994 72.3617 63.3816 72.6699 63.5459 72.9164C63.7185 73.1629 63.9568 73.3683 64.2608 73.5327C64.5649 73.6888 64.9305 73.8203 65.3578 73.9271C65.7851 74.0339 66.2617 74.1408 66.7876 74.2476L67.0711 74.2969C67.7778 74.4284 68.4804 74.5968 69.1788 74.8023C69.8773 74.9995 70.51 75.2953 71.077 75.6897C71.6522 76.0759 72.1165 76.5854 72.4698 77.2181C72.8232 77.8426 72.9998 78.6438 72.9998 79.6217C72.9998 80.5091 72.815 81.2939 72.4452 81.9759C72.0754 82.6579 71.5865 83.2413 70.9784 83.7262C70.3703 84.2028 69.6678 84.5643 68.8707 84.8108C68.0736 85.0491 67.2437 85.1683 66.3809 85.1683C65.5099 85.1683 64.7005 85.0943 63.9527 84.9464C63.2131 84.7985 62.5393 84.589 61.9313 84.3178C61.3314 84.0466 60.7932 83.7426 60.3166 83.4057C59.8482 83.0688 59.4373 82.7072 59.084 82.321L61.4136 79.9544Z" fill="white"/>
<path d="M44.9463 67.2463H52.009C52.9211 67.2463 53.7428 67.3984 54.4742 67.7024C55.2137 67.9982 55.8382 68.4091 56.3477 68.935C56.8572 69.4527 57.2475 70.069 57.5186 70.7839C57.798 71.4987 57.9377 72.2753 57.9377 73.1134C57.9377 73.9516 57.7857 74.7281 57.4817 75.443C57.1858 76.1579 56.7627 76.7783 56.2121 77.3042C55.6698 77.8219 55.0165 78.2287 54.2523 78.5245C53.4881 78.8203 52.6458 78.9682 51.7255 78.9682H48.5208V84.9216H44.9463V67.2463ZM54.2523 73.0518C54.2523 72.6327 54.1783 72.263 54.0304 71.9425C53.8825 71.6138 53.6689 71.3344 53.3895 71.1043C53.1101 70.8742 52.7732 70.7017 52.3788 70.5866C51.9843 70.4634 51.5406 70.4018 51.0476 70.4018H48.5208V75.8128H51.0476C51.5406 75.8128 51.9843 75.7553 52.3788 75.6402C52.7732 75.517 53.1101 75.3403 53.3895 75.1102C53.6689 74.8801 53.8825 74.6049 54.0304 74.2844C54.1783 73.9557 54.2523 73.5818 54.2523 73.1627V73.0518Z" fill="white"/>
<path d="M42.0622 76.084C42.0622 77.4069 41.8814 78.6149 41.5198 79.7078C41.1665 80.7924 40.6324 81.721 39.9175 82.4934C39.2108 83.2658 38.3233 83.8657 37.2551 84.293C36.1869 84.712 34.9378 84.9216 33.508 84.9216H27V67.2463H33.508C34.9378 67.2463 36.1869 67.46 37.2551 67.8873C38.3233 68.3064 39.2108 68.9021 39.9175 69.6745C40.6324 70.4469 41.1665 71.3796 41.5198 72.4725C41.8814 73.5572 42.0622 74.761 42.0622 76.084ZM38.3521 75.7388C38.3521 74.9911 38.2576 74.2967 38.0686 73.6558C37.8878 73.0066 37.592 72.4437 37.1811 71.9671C36.7785 71.4905 36.2526 71.1166 35.6034 70.8455C34.9543 70.5661 34.1695 70.4264 33.2492 70.4264H30.5745V81.7415H33.2492C34.1613 81.7415 34.9419 81.6059 35.5911 81.3348C36.2403 81.0554 36.7662 80.6774 37.1688 80.2008C37.5797 79.716 37.8796 79.149 38.0686 78.4998C38.2576 77.8507 38.3521 77.1563 38.3521 76.4168V75.7388Z" fill="white"/>
<defs>
<clipPath id="clip0_1183_736">
<rect width="46" height="44.0426" fill="white" transform="translate(27 12)"/>
</clipPath>
</defs>
</svg>
